<?xml version="1.0" encoding="UTF-8" standalone="no"?>
<!DOCTYPE svg PUBLIC "-//W3C//DTD SVG 1.1//EN"
 "http://www.w3.org/Graphics/SVG/1.1/DTD/svg11.dtd">
<!-- Generated by graphviz version 2.44.0 (20200408.0750)
 -->
<!-- Title: dependency&#45;cruiser output Pages: 1 -->
<svg width="289pt" height="143pt"
 viewBox="0.00 0.00 288.50 143.00" xmlns="http://www.w3.org/2000/svg" xmlns:xlink="http://www.w3.org/1999/xlink">
<g id="graph0" class="graph" transform="scale(1 1) rotate(0) translate(4 139)">
<title>dependency&#45;cruiser output</title>
<polygon fill="white" stroke="transparent" points="-4,4 -4,-139 284.5,-139 284.5,4 -4,4"/>
<g id="clust1" class="cluster">
<title>cluster_src</title>
<path fill="#ffffff" stroke="black" stroke-width="2" d="M20,-8C20,-8 260.5,-8 260.5,-8 266.5,-8 272.5,-14 272.5,-20 272.5,-20 272.5,-115 272.5,-115 272.5,-121 266.5,-127 260.5,-127 260.5,-127 20,-127 20,-127 14,-127 8,-121 8,-115 8,-115 8,-20 8,-20 8,-14 14,-8 20,-8"/>
<text text-anchor="middle" x="140.25" y="-114.9" font-family="Helvetica,sans-Serif" font-weight="bold" font-size="9.00">src</text>
</g>
<g id="clust2" class="cluster">
<title>cluster_src/handlers</title>
<path fill="#ffffff" stroke="black" stroke-width="2" d="M184,-16C184,-16 252.5,-16 252.5,-16 258.5,-16 264.5,-22 264.5,-28 264.5,-28 264.5,-88 264.5,-88 264.5,-94 258.5,-100 252.5,-100 252.5,-100 184,-100 184,-100 178,-100 172,-94 172,-88 172,-88 172,-28 172,-28 172,-22 178,-16 184,-16"/>
<text text-anchor="middle" x="218.25" y="-87.9" font-family="Helvetica,sans-Serif" font-weight="bold" font-size="9.00">handlers</text>
</g>
<g id="clust3" class="cluster">
<title>cluster_src/init</title>
<path fill="#ffffff" stroke="black" stroke-width="2" d="M28,-47C28,-47 74,-47 74,-47 80,-47 86,-53 86,-59 86,-59 86,-88 86,-88 86,-94 80,-100 74,-100 74,-100 28,-100 28,-100 22,-100 16,-94 16,-88 16,-88 16,-59 16,-59 16,-53 22,-47 28,-47"/>
<text text-anchor="middle" x="51" y="-87.9" font-family="Helvetica,sans-Serif" font-weight="bold" font-size="9.00">init</text>
</g>
<g id="clust4" class="cluster">
<title>cluster_src/listeners</title>
<path fill="#ffffff" stroke="black" stroke-width="2" d="M106,-47C106,-47 152,-47 152,-47 158,-47 164,-53 164,-59 164,-59 164,-88 164,-88 164,-94 158,-100 152,-100 152,-100 106,-100 106,-100 100,-100 94,-94 94,-88 94,-88 94,-59 94,-59 94,-53 100,-47 106,-47"/>
<text text-anchor="middle" x="129" y="-87.9" font-family="Helvetica,sans-Serif" font-weight="bold" font-size="9.00">listeners</text>
</g>
<!-- src/data.js -->
<g id="node1" class="node">
<title>src/data.js</title>
<g id="a_node1"><a xlink:href="src/data.js" xlink:title="data.js">
<path fill="#ccffcc" stroke="black" d="M71.8,-37.3C71.8,-37.3 30.2,-37.3 30.2,-37.3 27.1,-37.3 24,-34.2 24,-31.1 24,-31.1 24,-24.9 24,-24.9 24,-21.8 27.1,-18.7 30.2,-18.7 30.2,-18.7 71.8,-18.7 71.8,-18.7 74.9,-18.7 78,-21.8 78,-24.9 78,-24.9 78,-31.1 78,-31.1 78,-34.2 74.9,-37.3 71.8,-37.3"/>
<text text-anchor="middle" x="51" y="-25.3" font-family="Helvetica,sans-Serif" font-size="9.00">data.js</text>
</a>
</g>
</g>
<!-- src/handlers/handler.js -->
<g id="node2" class="node">
<title>src/handlers/handler.js</title>
<g id="a_node2"><a xlink:href="src/handlers/handler.js" xlink:title="handler.js">
<path fill="#ffffcc" stroke="black" d="M239.56,-73.3C239.56,-73.3 196.95,-73.3 196.95,-73.3 193.85,-73.3 190.75,-70.2 190.75,-67.1 190.75,-67.1 190.75,-60.9 190.75,-60.9 190.75,-57.8 193.85,-54.7 196.95,-54.7 196.95,-54.7 239.56,-54.7 239.56,-54.7 242.66,-54.7 245.76,-57.8 245.76,-60.9 245.76,-60.9 245.76,-67.1 245.76,-67.1 245.76,-70.2 242.66,-73.3 239.56,-73.3"/>
<text text-anchor="middle" x="218.25" y="-61.3" font-family="Helvetica,sans-Serif" font-size="9.00">handler.js</text>
</a>
</g>
</g>
<!-- src/handlers/local&#45;storage.js -->
<g id="node3" class="node">
<title>src/handlers/local&#45;storage.js</title>
<g id="a_node3"><a xlink:href="src/handlers/local-storage.js" xlink:title="local&#45;storage.js">
<path fill="#ccffcc" stroke="black" d="M250.06,-42.3C250.06,-42.3 186.45,-42.3 186.45,-42.3 183.35,-42.3 180.25,-39.2 180.25,-36.1 180.25,-36.1 180.25,-29.9 180.25,-29.9 180.25,-26.8 183.35,-23.7 186.45,-23.7 186.45,-23.7 250.06,-23.7 250.06,-23.7 253.16,-23.7 256.26,-26.8 256.26,-29.9 256.26,-29.9 256.26,-36.1 256.26,-36.1 256.26,-39.2 253.16,-42.3 250.06,-42.3"/>
<text text-anchor="middle" x="218.25" y="-30.3" font-family="Helvetica,sans-Serif" font-size="9.00">local&#45;storage.js</text>
</a>
</g>
</g>
<!-- src/init/index.js -->
<g id="node4" class="node">
<title>src/init/index.js</title>
<g id="a_node4"><a xlink:href="src/init/index.js" xlink:title="index.js">
<path fill="#ffffcc" stroke="black" d="M71.8,-73.3C71.8,-73.3 30.2,-73.3 30.2,-73.3 27.1,-73.3 24,-70.2 24,-67.1 24,-67.1 24,-60.9 24,-60.9 24,-57.8 27.1,-54.7 30.2,-54.7 30.2,-54.7 71.8,-54.7 71.8,-54.7 74.9,-54.7 78,-57.8 78,-60.9 78,-60.9 78,-67.1 78,-67.1 78,-70.2 74.9,-73.3 71.8,-73.3"/>
<text text-anchor="middle" x="51" y="-61.3" font-family="Helvetica,sans-Serif" font-size="9.00">index.js</text>
</a>
</g>
</g>
<!-- src/listeners/listener.js -->
<g id="node5" class="node">
<title>src/listeners/listener.js</title>
<g id="a_node5"><a xlink:href="src/listeners/listener.js" xlink:title="listener.js">
<path fill="#ffffcc" stroke="black" d="M149.8,-73.3C149.8,-73.3 108.2,-73.3 108.2,-73.3 105.1,-73.3 102,-70.2 102,-67.1 102,-67.1 102,-60.9 102,-60.9 102,-57.8 105.1,-54.7 108.2,-54.7 108.2,-54.7 149.8,-54.7 149.8,-54.7 152.9,-54.7 156,-57.8 156,-60.9 156,-60.9 156,-67.1 156,-67.1 156,-70.2 152.9,-73.3 149.8,-73.3"/>
<text text-anchor="middle" x="129" y="-61.3" font-family="Helvetica,sans-Serif" font-size="9.00">listener.js</text>
</a>
</g>
</g>
<!-- src/init/index.js&#45;&gt;src/listeners/listener.js -->
<g id="edge1" class="edge">
<title>src/init/index.js&#45;&gt;src/listeners/listener.js</title>
<path fill="none" stroke="#000000" stroke-width="2" stroke-opacity="0.200000" d="M78.15,-64C83.77,-64 89.76,-64 95.58,-64"/>
<polygon fill="#000000" fill-opacity="0.200000" stroke="#000000" stroke-width="2" stroke-opacity="0.200000" points="95.8,-66.1 101.8,-64 95.8,-61.9 95.8,-66.1"/>
</g>
<!-- src/listeners/listener.js&#45;&gt;src/handlers/handler.js -->
<g id="edge2" class="edge">
<title>src/listeners/listener.js&#45;&gt;src/handlers/handler.js</title>
<path fill="none" stroke="#000000" stroke-width="2" stroke-opacity="0.200000" d="M156.18,-64C165.07,-64 175.13,-64 184.47,-64"/>
<polygon fill="#000000" fill-opacity="0.200000" stroke="#000000" stroke-width="2" stroke-opacity="0.200000" points="184.49,-66.1 190.49,-64 184.49,-61.9 184.49,-66.1"/>
</g>
</g>
</svg>
